<?xml version="1.0" standalone="no"?>
<!DOCTYPE svg PUBLIC "-//W3C//DTD SVG 20010904//EN"
 "http://www.w3.org/TR/2001/REC-SVG-20010904/DTD/svg10.dtd">
 
 <svg version="1.0" xmlns="http://www.w3.org/2000/svg" width="650" height="500" viewBox="0 0 650 500" fill="none">

<g transform="translate(0.000000,1024.000000) scale(0.100000,-0.100000)"
fill="#000000" stroke="none">
<path d="M0 5120 l0 -5120 5120 0 5120 0 0 5120 0 5120 -5120 0 -5120 0 0
-5120z m5210 2849 c386 1 667 -3 716 -9 170 -22 322 -74 460 -159 105 -65 166
-120 236 -214 73 -99 112 -181 139 -293 18 -76 20 -110 17 -234 -5 -128 -9
-156 -36 -240 -50 -151 -140 -279 -268 -381 -35 -28 -64 -56 -64 -62 1 -7 35
-32 77 -56 179 -104 327 -296 394 -511 21 -66 23 -95 24 -245 0 -194 -13 -262
-75 -405 -45 -102 -143 -243 -214 -307 -167 -150 -407 -256 -641 -283 -49 -5
-275 -10 -501 -10 -227 0 -490 -5 -585 -10 -121 -7 -194 -7 -239 0 -36 6 -138
15 -227 20 -223 14 -298 30 -413 87 -144 72 -230 134 -327 237 -103 110 -146
176 -183 289 -63 186 -65 352 -6 529 40 121 77 186 161 276 124 134 339 249
500 268 30 4 55 11 55 15 0 5 -5 9 -10 9 -25 0 -212 134 -291 208 -149 140
-233 283 -269 459 -59 296 19 563 229 774 93 94 202 164 306 199 98 32 272 60
340 54 33 -3 346 -5 695 -5z m-2059 -1788 c32 -26 15 -44 -29 -32 -41 12 -51
-3 -12 -19 35 -15 70 -55 70 -80 0 -10 -9 -28 -19 -41 -24 -29 -91 -31 -121
-4 -32 29 -24 38 25 33 52 -6 58 5 16 27 -36 18 -61 42 -61 58 0 7 9 27 20 45
16 26 26 32 54 32 19 0 44 -9 57 -19z m4297 1 c13 -13 21 -41 26 -93 8 -92 0
-101 -94 -97 l-65 3 -3 103 -3 102 61 0 c45 0 65 -5 78 -18z m-5645 -1993 c12
-7 34 -22 48 -34 l26 -21 -28 -35 -28 -34 -31 18 c-18 9 -49 17 -71 17 -33 0
-39 -3 -45 -27 -9 -34 9 -47 97 -73 89 -27 129 -63 129 -119 0 -33 -7 -49 -35
-80 -63 -69 -147 -77 -253 -23 l-52 27 28 34 c28 34 28 34 59 17 18 -9 56 -16
87 -16 46 0 56 3 61 20 10 31 -9 46 -83 71 -74 25 -142 81 -142 119 0 98 146
184 233 139z m489 -91 c41 -82 157 -320 166 -340 2 -5 -19 -8 -46 -8 -47 0
-51 2 -71 36 l-21 35 -93 -3 -92 -3 -10 -33 c-9 -30 -12 -32 -57 -32 l-47 0
11 32 c6 17 48 106 94 197 46 91 88 179 93 194 6 16 15 26 19 23 5 -3 29 -47
54 -98z m1208 86 c0 -7 -4 -15 -9 -18 -5 -3 -23 -43 -41 -88 -19 -46 -57 -130
-86 -188 -29 -58 -58 -117 -63 -132 -6 -16 -15 -28 -21 -28 -11 0 -104 189
-150 303 -17 43 -40 97 -51 118 l-20 40 58 -3 c57 -3 58 -3 64 -38 6 -36 75
-208 89 -223 11 -13 53 68 91 174 l33 97 53 0 c37 0 53 -4 53 -14z m440 -34
l0 -50 -109 0 -109 0 -4 -45 -3 -45 92 0 93 0 0 -46 0 -47 -89 7 -88 7 -6 -38
c-4 -20 -4 -39 -2 -42 3 -2 55 -7 115 -9 l110 -5 0 -43 0 -44 -155 0 -154 0
-3 221 -3 222 120 -5 c97 -4 173 0 193 11 1 0 2 -21 2 -49z m386 19 c27 -17
51 -33 53 -35 6 -6 -51 -64 -62 -64 -4 0 -15 7 -23 15 -20 19 -88 19 -104 0
-25 -30 -7 -49 70 -75 41 -14 85 -30 96 -37 29 -17 48 -66 40 -107 -20 -108
-143 -148 -266 -86 -33 17 -60 32 -60 34 0 2 15 15 33 29 32 24 36 25 73 12
78 -28 141 -13 132 31 -4 20 -16 27 -89 48 -70 20 -106 48 -117 89 -17 65 18
134 83 163 48 21 87 17 141 -17z m425 -161 l100 3 -7 90 -7 89 49 0 49 0 -3
-212 c-2 -117 -5 -214 -6 -215 -1 -1 -21 -5 -44 -9 l-42 -7 0 87 0 86 -96 0
-96 0 3 -81 4 -81 -47 -3 -48 -3 0 219 0 218 43 3 42 3 3 -95 3 -95 100 3z
m1289 2 l100 0 0 90 0 90 43 0 42 0 2 -220 2 -220 -44 0 -44 0 -3 88 c-2 48
-6 86 -10 85 -5 -2 -49 -3 -99 -3 l-91 0 4 -80 3 -80 -42 0 -43 0 0 214 0 215
38 3 37 3 3 -92 3 -93 99 0z m1017 77 c48 -62 92 -114 97 -116 5 -2 48 47 95
110 47 62 91 114 98 116 10 4 18 -189 18 -433 0 -1 -20 -4 -45 -8 l-45 -7 3
63 c1 35 -1 83 -6 108 l-8 45 -53 -72 c-30 -40 -56 -73 -60 -73 -3 0 -18 19
-33 43 -15 23 -39 53 -53 67 l-25 23 0 -100 0 -101 -45 0 -45 1 0 224 c0 128
4 223 9 223 5 0 49 -51 98 -113z m902 47 c-7 -41 -7 -110 -1 -215 5 -84 7
-157 5 -161 -2 -5 -24 -8 -49 -8 l-44 0 -1 58 c0 31 -4 77 -7 101 l-7 43 -42
-66 c-23 -36 -48 -66 -55 -66 -8 0 -22 15 -32 33 -23 40 -79 116 -86 117 -3 0
-5 -17 -5 -37 -1 -21 -2 -71 -3 -112 l-2 -74 -41 6 c-22 3 -41 7 -42 9 -1 1
-1 99 1 216 l3 212 34 0 c19 0 35 -4 35 -9 0 -10 138 -206 145 -206 5 0 16 16
112 153 27 38 51 62 65 64 13 2 24 3 25 3 2 -1 -2 -28 -8 -61z m-5093 30 c54
-40 69 -70 69 -141 0 -63 -1 -66 -39 -99 l-39 -34 26 -37 c15 -21 38 -53 53
-70 l27 -33 -59 0 -59 0 -39 65 c-37 63 -40 65 -78 65 l-40 0 4 -62 3 -63 -42
-3 -43 -3 0 205 c0 112 -3 212 -6 221 -6 16 4 17 114 14 103 -3 125 -7 148
-25z m2741 -10 c64 -49 80 -114 38 -154 -27 -25 -32 -40 -13 -40 23 0 58 -43
58 -73 0 -40 -27 -92 -58 -114 -22 -14 -52 -18 -154 -20 l-128 -3 0 204 c0
113 -3 212 -7 222 -6 16 2 17 112 10 106 -6 122 -9 152 -32z m883 -110 l0
-146 29 -29 c33 -32 67 -37 110 -14 37 19 41 35 41 198 l0 137 46 0 45 0 -3
-168 c-3 -168 -3 -169 -32 -206 -16 -21 -45 -45 -64 -53 -51 -21 -139 -13
-180 16 -57 40 -68 78 -75 254 l-7 157 45 0 45 0 0 -146z m1899 9 c33 -67 69
-143 80 -170 10 -26 29 -65 41 -86 l22 -37 -56 0 c-55 0 -57 1 -62 30 l-6 30
-94 0 -94 0 -15 -36 c-14 -35 -16 -36 -57 -29 -24 4 -44 8 -46 10 -2 1 11 27
29 56 17 29 40 76 51 104 11 27 32 70 48 95 16 25 41 73 56 108 15 35 30 59
35 55 4 -4 35 -63 68 -130z m519 122 c66 -28 112 -86 112 -142 0 -33 -30 -85
-67 -117 l-26 -23 21 -34 c11 -19 35 -47 52 -64 l31 -30 -23 -6 c-13 -4 -39
-7 -59 -8 -34 -1 -37 2 -70 62 -33 59 -36 62 -77 65 l-42 3 3 -63 2 -63 -38 1
c-21 1 -39 3 -41 5 -2 2 -6 100 -9 217 l-5 212 99 0 c67 0 112 -5 137 -15z
m-2443 -1077 c6 -23 15 -43 20 -45 6 -1 23 15 39 37 27 36 61 59 71 48 3 -2
-3 -28 -12 -56 -17 -52 -17 -53 10 -108 30 -60 28 -74 -8 -74 -19 0 -30 10
-45 40 -14 27 -25 38 -35 34 -8 -4 -22 -1 -30 6 -11 9 -14 4 -17 -32 -3 -37
-6 -43 -23 -40 -11 2 -23 7 -27 10 -3 4 -4 55 -1 114 5 87 9 108 22 111 22 5
25 1 36 -45z m429 -78 c21 -49 36 -96 33 -105 -11 -26 -44 -18 -56 15 -8 24
-16 30 -38 30 -35 0 -50 -10 -54 -35 -5 -22 -36 -32 -52 -16 -7 7 2 35 30 93
23 46 46 98 53 117 13 33 13 33 29 12 9 -12 33 -62 55 -111z m-3509 106 c46
-19 58 -46 45 -95 -11 -41 -24 -51 -71 -51 -27 0 -29 -2 -29 -40 0 -36 -2 -40
-25 -40 l-25 0 0 113 c0 63 3 117 7 120 11 12 62 8 98 -7z m530 0 c55 -23 74
-86 35 -121 -20 -18 -20 -18 0 -50 26 -42 25 -55 -4 -55 -27 0 -56 33 -56 62
0 10 -7 18 -15 18 -11 0 -15 -11 -15 -40 0 -40 -11 -49 -38 -31 -11 7 -12 30
-7 112 9 125 21 138 100 105z m870 -36 c4 -27 11 -50 15 -50 11 0 40 -29 40
-40 0 -4 -12 -11 -27 -15 l-28 -8 33 -9 c35 -9 38 -16 19 -42 -10 -13 -24 -17
-57 -14 l-45 3 3 95 c4 109 8 130 27 130 8 0 16 -18 20 -50z m487 23 c33 -30
41 -52 28 -83 -11 -28 -38 -46 -75 -52 -16 -3 -20 -11 -20 -38 0 -29 -4 -36
-22 -38 -23 -3 -23 -2 -23 111 0 62 3 117 8 121 12 13 82 -1 104 -21z m232 11
c3 -9 6 -28 6 -44 0 -24 4 -28 35 -32 38 -4 40 -1 47 62 2 14 10 26 19 28 19
4 29 -51 29 -163 0 -57 -3 -74 -16 -79 -26 -10 -34 2 -34 50 l0 45 -42 -3 -43
-3 0 -43 c0 -37 -3 -42 -22 -42 -12 0 -24 4 -27 8 -3 5 -2 59 1 120 5 98 8
112 23 112 10 0 21 -7 24 -16z m334 3 c6 -7 12 -46 14 -87 3 -73 4 -75 30 -78
32 -4 35 6 41 108 4 61 6 65 28 65 23 0 24 -2 23 -81 -1 -66 -5 -89 -23 -117
-37 -59 -67 -59 -126 3 -28 29 -30 37 -31 108 -1 42 0 80 3 85 7 11 29 8 41
-6z m418 -115 c7 -108 6 -112 -13 -112 -25 0 -33 18 -33 73 l0 41 -30 -29
c-29 -28 -30 -28 -50 -10 -20 18 -20 18 -20 -22 0 -28 -5 -43 -15 -47 -9 -3
-17 0 -20 7 -8 27 -15 167 -9 191 9 38 33 32 51 -14 9 -22 20 -40 24 -40 5 0
27 20 50 45 23 25 46 42 50 38 5 -5 11 -59 15 -121z m955 99 c36 -36 37 -57 3
-93 l-27 -27 27 -35 c33 -44 33 -58 -1 -54 -18 2 -35 15 -51 38 -30 45 -42 49
-42 13 0 -37 -13 -56 -36 -51 -20 4 -20 -1 -16 158 l2 80 56 0 c48 0 59 -4 85
-29z m-3523 -3 c3 -15 -4 -18 -43 -18 -39 0 -46 -3 -43 -17 2 -12 15 -20 38
-23 52 -7 52 -36 0 -44 -65 -10 -49 -46 21 -46 27 0 30 -3 27 -27 -3 -27 -5
-28 -72 -31 -67 -3 -68 -3 -62 20 3 13 6 65 6 116 l0 93 62 -3 c50 -2 63 -6
66 -20z m488 8 c23 -17 19 -23 -24 -29 -60 -10 -55 -27 13 -50 45 -16 55 -40
34 -88 -14 -35 -45 -59 -75 -59 -21 0 -80 57 -70 67 3 3 21 0 41 -7 28 -9 39
-9 50 0 24 20 18 35 -25 65 -45 31 -47 40 -23 75 29 43 47 49 79 26z m256 -39
c20 -7 55 -59 65 -95 3 -14 0 -29 -8 -38 -13 -12 -20 -11 -53 7 -31 17 -44 19
-63 10 -12 -6 -23 -15 -23 -21 0 -5 -7 -10 -16 -10 -18 0 -17 8 18 123 l20 68
22 -19 c11 -10 29 -22 38 -25z m3237 7 c51 -42 35 -88 -36 -106 -31 -8 -99 11
-119 33 -22 25 -11 64 24 83 43 24 96 20 131 -10z m-4675 -9 c53 -49 18 -85
-84 -85 -107 0 -146 35 -96 85 22 21 34 25 89 25 54 0 68 -4 91 -25z m2337
-560 c41 -22 69 -71 69 -123 0 -34 -6 -49 -34 -80 -29 -31 -40 -37 -75 -36
-118 3 -173 142 -87 221 40 37 79 42 127 18z"/>
<path d="M4823 7811 c23 -24 72 -68 109 -97 38 -30 74 -67 82 -82 12 -23 15
-129 17 -602 1 -316 -1 -583 -6 -592 -5 -13 14 -39 78 -105 107 -111 110 -113
195 -257 l71 -119 -1 849 c-1 468 2 855 6 862 9 15 392 17 485 1 166 -26 320
-140 409 -299 96 -171 98 -455 5 -633 -45 -87 -157 -203 -226 -235 -136 -64
-254 -89 -444 -94 l-113 -3 0 -88 0 -88 158 7 c238 10 343 -11 490 -97 90 -53
203 -172 246 -260 60 -124 79 -220 73 -374 -8 -208 -58 -333 -188 -469 -79
-84 -186 -145 -305 -177 -64 -17 -113 -21 -259 -22 -200 -2 -284 6 -315 31
-20 16 -21 30 -30 362 -7 271 -13 369 -29 455 -24 135 -35 166 -106 304 -118
232 -192 298 -623 558 -287 173 -329 202 -447 318 -150 145 -211 304 -187 488
12 100 31 137 111 217 138 138 388 167 538 64 64 -44 95 -79 130 -148 22 -42
27 -65 27 -131 1 -78 0 -80 -28 -93 -38 -19 -49 -6 -70 78 -39 154 -101 219
-240 250 -147 33 -336 -91 -365 -239 -32 -165 70 -352 277 -509 43 -32 145
-98 227 -147 83 -48 190 -115 239 -147 49 -32 93 -58 97 -58 10 0 12 557 3
649 -4 33 -11 61 -15 61 -5 0 -9 -7 -9 -16 0 -42 -27 -98 -67 -140 -118 -122
-273 -125 -413 -8 -51 44 -73 97 -68 171 4 70 28 112 72 127 42 16 51 -3 30
-61 -17 -48 -17 -52 0 -96 27 -72 96 -117 176 -117 43 1 109 38 178 101 50 45
72 59 89 56 20 -4 23 1 29 40 7 51 0 300 -10 323 -3 9 -15 20 -25 25 -10 6
-50 36 -87 68 -135 115 -238 157 -383 157 -97 0 -195 -22 -281 -63 -74 -35
-187 -133 -238 -205 -51 -73 -120 -243 -134 -331 -17 -106 -4 -256 30 -355 64
-185 144 -282 383 -461 101 -75 228 -166 283 -202 287 -186 331 -222 401 -328
21 -32 52 -98 69 -145 25 -72 30 -103 34 -210 5 -158 -12 -243 -73 -366 -76
-156 -175 -243 -342 -304 -76 -27 -101 -32 -183 -32 -208 -1 -329 49 -475 196
-229 230 -262 498 -92 744 114 165 260 244 451 241 122 -2 180 -12 184 -31 2
-12 -3 -18 -15 -18 -58 0 -207 -23 -265 -40 -82 -25 -181 -97 -257 -187 -78
-94 -95 -144 -95 -278 0 -133 17 -186 97 -290 129 -169 316 -251 510 -224 260
36 437 245 454 539 6 107 -8 182 -54 278 -37 78 -132 168 -292 276 -130 88
-133 90 -204 95 -271 21 -487 -84 -633 -309 -66 -103 -94 -197 -101 -340 -4
-96 -2 -129 16 -199 30 -118 98 -236 191 -331 102 -104 193 -161 326 -206 106
-36 114 -37 254 -38 108 0 162 4 210 18 179 48 325 161 391 301 20 44 47 112
59 150 27 86 39 100 64 82 16 -12 17 -21 7 -113 -12 -119 -53 -235 -105 -299
-20 -24 -70 -65 -111 -91 -65 -41 -73 -49 -58 -58 28 -16 1109 -15 1198 2 149
27 304 91 435 177 140 93 273 296 325 497 49 189 7 455 -98 614 -51 79 -175
197 -247 237 -70 38 -247 111 -293 122 -39 8 -24 24 50 55 91 37 206 115 271
184 71 77 166 250 188 344 29 125 11 346 -36 457 -26 61 -110 182 -156 227
-49 45 -167 122 -239 153 -30 14 -101 37 -157 52 -102 28 -105 28 -468 30
-201 2 -465 4 -587 6 l-222 2 42 -44z m-400 -2014 c158 -93 182 -289 50 -408
-51 -46 -100 -62 -173 -57 -102 7 -204 92 -231 191 -24 90 31 210 126 275 47
32 54 34 117 29 48 -3 79 -12 111 -30z"/>
<path d="M4259 5704 c-15 -10 -39 -36 -53 -58 -38 -58 -31 -98 29 -155 44 -42
48 -43 96 -39 53 5 102 40 120 86 15 39 -1 102 -36 140 -26 29 -40 35 -81 39
-34 2 -57 -1 -75 -13z"/>
<path d="M5483 7053 l2 -518 172 2 c198 2 262 15 351 73 74 48 117 98 158 185
149 313 22 663 -275 755 -53 17 -92 20 -237 20 l-174 0 3 -517z"/>
<path d="M5488 6124 c-5 -4 -8 -31 -8 -59 0 -58 -16 -157 -31 -197 -8 -19 -6
-60 6 -150 8 -67 18 -231 21 -363 2 -132 7 -277 10 -322 l6 -83 197 0 c225 0
265 8 372 70 248 146 354 528 224 805 -42 91 -92 147 -183 206 -131 86 -157
92 -397 97 -115 2 -213 0 -217 -4z"/>
<path d="M7375 6140 c-3 -5 -4 -14 -1 -19 9 -13 46 -1 46 15 0 16 -36 19 -45
4z"/>
<path d="M7376 6072 c-3 -3 -6 -14 -6 -24 0 -24 43 -21 48 3 3 16 -31 33 -42
21z"/>
<path d="M2230 4009 c0 -9 -11 -37 -24 -62 l-24 -45 21 -6 c12 -3 39 -6 60 -6
l37 0 -13 33 c-21 50 -57 104 -57 86z"/>
<path d="M2690 4036 l0 -66 61 0 c79 0 99 11 99 55 0 44 -29 64 -104 72 l-56
6 0 -67z"/>
<path d="M5433 4055 l-2 -46 67 3 c66 3 67 3 70 33 5 39 -19 55 -82 55 l-51 0
-2 -45z"/>
<path d="M5438 3880 l-4 -40 78 0 c68 0 77 2 83 20 3 11 3 29 0 40 -6 18 -15
20 -80 20 l-73 0 -4 -40z"/>
<path d="M8295 3973 c-10 -26 -22 -54 -28 -60 -7 -10 3 -13 47 -13 32 0 56 4
56 10 0 10 -30 71 -48 98 -6 9 -14 -1 -27 -35z"/>
<path d="M8758 4070 c-8 -54 2 -88 28 -94 40 -10 104 5 119 28 32 49 -16 96
-98 96 -42 0 -45 -2 -49 -30z"/>
<path d="M6805 3009 c-8 -12 -5 -16 15 -21 15 -3 20 2 20 22 0 13 -27 13 -35
-1z"/>
<path d="M3330 3055 c0 -20 5 -25 25 -25 30 0 34 25 6 40 -28 14 -31 13 -31
-15z"/>
<path d="M3860 3060 c0 -34 22 -49 45 -30 20 16 19 46 -1 54 -33 13 -44 6 -44
-24z"/>
<path d="M5203 3064 c-3 -8 -1 -20 4 -25 14 -14 43 0 43 22 0 24 -38 26 -47 3z"/>
<path d="M7117 3084 c-16 -17 -6 -44 19 -50 28 -7 46 9 41 36 -2 16 -48 26
-60 14z"/>
<path d="M4370 3031 c0 -6 4 -13 10 -16 6 -3 7 1 4 9 -7 18 -14 21 -14 7z"/>
</g>
</svg>
